<?xml version="1.0" encoding="utf-8"?>
<!-- Generator: Adobe Illustrator 25.2.0, SVG Export Plug-In . SVG Version: 6.00 Build 0)  -->
<svg version="1.1" id="Calque_1" xmlns="http://www.w3.org/2000/svg" xmlns:xlink="http://www.w3.org/1999/xlink" x="0px" y="0px"
	 viewBox="0 0 32 13.43" style="enable-background:new 0 0 32 13.43;" xml:space="preserve">
<style type="text/css">
	.st0{display:none;fill:#FFFFFF;}
	.st1{fill:#524495;}
</style>
<circle class="st0" cx="16" cy="6.71" r="15.64"/>
<g>
	<path class="st1" d="M10.61,13.41c0.9-1.52,1.69-2.87,2.49-4.21c1.42-2.38,2.86-4.74,4.27-7.13C18.2,0.67,19.36-0.02,21,0
		c3.3,0.04,6.6,0.01,9.9,0.01c0.31,0,0.62,0.03,0.99,0.05c0.04,0.3,0.09,0.57,0.09,0.84c0,3.2,0.01,6.39-0.01,9.59
		c-0.01,1.87-1.08,2.9-2.96,2.91c-1.55,0.01-3.09,0-4.64-0.01c-0.1,0-0.21-0.03-0.41-0.06c0-1.29,0-2.6,0-4.05
		c0.92,0,1.82-0.02,2.72,0.01c0.79,0.02,1.16-0.31,1.15-1.13c-0.02-1.29-0.01-2.59-0.01-4.01c-1.96,0-3.84-0.04-5.72,0.04
		C21.78,4.2,21.36,4.65,21.15,5c-1.55,2.51-3.07,5.03-4.56,7.57c-0.36,0.62-0.76,0.88-1.5,0.85C13.67,13.36,12.25,13.41,10.61,13.41
		z"/>
	<path class="st1" d="M0,13.41c0.71-1.18,1.3-2.16,1.88-3.13C3.54,7.51,5.2,4.75,6.85,1.98c0.78-1.32,1.9-1.99,3.46-1.97
		c2.09,0.03,4.18,0.01,6.45,0.01c-0.83,1.37-1.51,2.58-2.3,3.72C14.29,4,13.73,4.17,13.39,4.11c-1.8-0.31-2.79,0.49-3.6,2.05
		C8.63,8.4,7.21,10.5,5.94,12.68c-0.32,0.55-0.69,0.77-1.33,0.75C3.15,13.37,1.7,13.41,0,13.41z"/>
</g>
</svg>
