<?xml version="1.0" encoding="utf-8"?>
<!-- Generator: Adobe Illustrator 25.2.0, SVG Export Plug-In . SVG Version: 6.00 Build 0)  -->
<svg version="1.1" id="Calque_1" xmlns="http://www.w3.org/2000/svg" xmlns:xlink="http://www.w3.org/1999/xlink" x="0px" y="0px"
	 viewBox="0 0 522 120" style="enable-background:new 0 0 522 120;" xml:space="preserve">
<style type="text/css">
	.st0{fill:#6A28DC;}
</style>
<g>
	<path class="st0" d="M68.68,95.7c4.8-8.12,9.02-15.3,13.29-22.45c7.58-12.67,15.27-25.28,22.77-38c4.39-7.45,10.59-11.1,19.35-11
		c17.6,0.19,35.19,0.05,52.79,0.07c1.65,0,3.31,0.17,5.3,0.28c0.19,1.61,0.49,3.04,0.5,4.47c0.02,17.03,0.06,34.07-0.05,51.1
		c-0.07,9.97-5.75,15.47-15.8,15.52c-8.24,0.04-16.47-0.02-24.71-0.05c-0.55,0-1.11-0.15-2.19-0.31c0-6.89,0-13.85,0-21.6
		c4.89,0,9.69-0.09,14.49,0.03c4.23,0.11,6.2-1.68,6.12-6.01c-0.13-6.89-0.03-13.79-0.03-21.38c-10.43,0-20.47-0.22-30.48,0.2
		c-1.81,0.08-4.01,2.47-5.16,4.33c-8.25,13.36-16.38,26.79-24.29,40.35c-1.94,3.32-4.07,4.71-7.97,4.56
		C85.03,95.48,77.42,95.7,68.68,95.7z"/>
	<path d="M232.05,98.06c-25.03-0.17-41.83-16.51-40.86-39.76c1-23.89,19.56-38.58,46.36-36.1c36.75,3.4,41.77,41.04,28.64,59.98
		C259.09,92.41,246.78,98.16,232.05,98.06z M213.65,60.09c-0.02,11.37,7.23,18.77,18.37,18.76c11.03-0.01,18.49-7.56,18.53-18.77
		c0.04-11.11-7.47-19.02-18.25-19.21C221.29,40.67,213.67,48.53,213.65,60.09z"/>
	<path d="M426.14,95.73c-9.53,0-18.28-0.01-27.03,0c-10.66,0.01-21.33-0.08-31.99,0.11c-3.64,0.07-5.38-0.65-5.34-4.86
		c0.19-20.58,0.08-41.15,0.09-61.73c0-2.41-0.43-5.02,3.4-5.01c20,0.05,40,0.02,60.48,0.02c0,5.89,0,11.37,0,17.43
		c-13.48,0-26.85,0-40.71,0c0,3.75,0,6.95,0,10.7c12.99,0,25.83,0,39.19,0c0,5.24,0,9.94,0,15.18c-13.31,0-26.15,0-39.33,0
		c0,3.41,0,6.28,0,9.98c10.49,0,20.72,0,30.95,0c10.34,0,10.34-0.01,10.29,10.5C426.13,90.29,426.14,92.51,426.14,95.73z"/>
	<path d="M457.39,59.49c-8.13-11.48-16.11-22.73-24.82-35.04c8.3,0,15.78-0.19,23.24,0.18c1.31,0.07,2.67,2.36,3.71,3.85
		c3.72,5.34,7.31,10.78,11.56,17.09c4.28-6.26,8.27-11.77,11.9-17.51c1.82-2.87,3.97-4,7.34-3.88c6.07,0.22,12.15,0.06,19.54,0.06
		c-7.57,10.67-14.11,20.37-21.19,29.66c-3.16,4.14-3.19,7.04,0,11.18c6.39,8.28,12.19,17.01,18.2,25.57
		c0.91,1.3,1.64,2.73,3.01,5.04c-7.95,0-14.98,0.18-21.98-0.15c-1.39-0.07-3-1.89-3.99-3.28c-4.19-5.91-8.18-11.96-12.75-18.71
		c-4.47,6.58-8.29,12.69-12.68,18.37c-1.43,1.86-4.26,3.47-6.57,3.66c-6.12,0.5-12.3,0.17-19.94,0.17
		C440.83,83.09,449.08,71.33,457.39,59.49z"/>
	<path d="M270.32,24.27c7.6,0,14.13-0.22,20.62,0.18c1.37,0.08,3.22,2.19,3.81,3.76c5.86,15.52,11.51,31.11,17.66,47.91
		c1.12-2.09,1.88-3.18,2.32-4.38c5.22-14.18,10.56-28.33,15.48-42.61c1.35-3.91,3.3-5.19,7.26-4.97c5.55,0.31,11.13,0.08,17.7,0.08
		c-1.96,5.28-3.58,9.76-5.27,14.21c-6.69,17.61-13.5,35.17-20,52.85c-1.24,3.38-2.82,4.67-6.43,4.55
		c-7.47-0.26-14.97,0.08-22.44-0.21c-1.59-0.06-4-1.44-4.53-2.79C287.79,70.45,279.32,47.97,270.32,24.27z"/>
	<path class="st0" d="M12.15,95.72c3.77-6.28,6.9-11.49,10.03-16.71c8.83-14.73,17.68-29.45,26.48-44.21
		c4.18-7.01,10.13-10.62,18.44-10.51c11.13,0.16,22.27,0.04,34.39,0.04c-4.42,7.29-8.06,13.75-12.24,19.84
		c-0.95,1.38-3.93,2.3-5.73,1.99c-9.57-1.63-14.88,2.61-19.19,10.95c-6.17,11.91-13.74,23.1-20.5,34.72
		c-1.72,2.95-3.65,4.1-7.1,3.97C28.96,95.53,21.18,95.72,12.15,95.72z"/>
</g>
</svg>
